/* XPM */
static const char * playpaus_xpm[] = {
"32 16 2 1",
" 	c None",
".	c #000000",
"                                ",
"                                ",
"                                ",
" ..                   ...   ... ",
" ....                 ...   ... ",
" ......               ...   ... ",
" ........             ...   ... ",
" ..........           ...   ... ",
" ..........           ...   ... ",
" ........             ...   ... ",
" ......               ...   ... ",
" ....                 ...   ... ",
" ..                   ...   ... ",
"                                ",
"                                ",
"                                "};
